<svg id="b37c9718-ebd0-4b84-8d7f-043904c5b281" data-name="Layer 1" xmlns="http://www.w3.org/2000/svg" viewBox="0 0 4.12 4.12">
  <title>zarinpal</title>
  <path d="M10.41,14.54a.6.6,0,0,1-.46-.69.58.58,0,0,1,.05-.14c0-.06.38-.42,1.58-1.63a15.73,15.73,0,0,1,1.65-1.6.43.43,0,0,1,.24-.05.44.44,0,0,1,.25.05.59.59,0,0,1,.28.77v0c0,.06-.41.44-1.53,1.57-.52.53-1.05,1.05-1.57,1.56A.6.6,0,0,1,10.41,14.54Zm2.32,0a.12.12,0,0,1,0-.08s.06-.11.59-.64c.33-.33.61-.61.63-.61a.1.1,0,0,1,.13.06,5.44,5.44,0,0,1,0,.64c0,.55,0,.59,0,.62l0,0h-.61c-.61,0-.62,0-.66,0ZM10,11.77a2.67,2.67,0,0,1,0-.66v-.63l0,0s.06,0,.64,0a2.45,2.45,0,0,1,.65,0,.16.16,0,0,1,0,.07s0,.07-.38.44l-.61.62c-.2.19-.22.21-.27.21Z" transform="translate(-9.94 -10.43)"/>
</svg>
